<svg width="14" height="14" viewBox="0 0 14 14" fill="none" xmlns="http://www.w3.org/2000/svg">
<g clip-path="url(#clip0_31_16)">
<path d="M4.66666 12.8334C4.98883 12.8334 5.24999 12.5722 5.24999 12.25C5.24999 11.9279 4.98883 11.6667 4.66666 11.6667C4.3445 11.6667 4.08333 11.9279 4.08333 12.25C4.08333 12.5722 4.3445 12.8334 4.66666 12.8334Z" stroke="white" stroke-width="1.16667" stroke-linecap="round" stroke-linejoin="round"/>
<path d="M11.0833 12.8334C11.4055 12.8334 11.6667 12.5722 11.6667 12.25C11.6667 11.9279 11.4055 11.6667 11.0833 11.6667C10.7612 11.6667 10.5 11.9279 10.5 12.25C10.5 12.5722 10.7612 12.8334 11.0833 12.8334Z" stroke="white" stroke-width="1.16667" stroke-linecap="round" stroke-linejoin="round"/>
<path d="M1.19583 1.1958H2.3625L3.91416 8.4408C3.97109 8.70614 4.11872 8.94333 4.33166 9.11155C4.5446 9.27977 4.80953 9.3685 5.08083 9.36247H10.7858C11.0513 9.36204 11.3088 9.27105 11.5156 9.10454C11.7224 8.93802 11.8662 8.70594 11.9233 8.44663L12.8858 4.11247H2.98666" stroke="white" stroke-width="1.16667" stroke-linecap="round" stroke-linejoin="round"/>
</g>
<defs>
<clipPath id="clip0_31_16">
<rect width="14" height="14" fill="white"/>
</clipPath>
</defs>
</svg>
