<svg width="16" height="16" viewBox="0 0 16 16" fill="none" xmlns="http://www.w3.org/2000/svg">
<path d="M1.33334 6.33333C1.33336 5.59147 1.55841 4.86706 1.97877 4.25578C2.39913 3.6445 2.99502 3.17511 3.68775 2.9096C4.38048 2.64409 5.13745 2.59496 5.85868 2.7687C6.57992 2.94243 7.23149 3.33085 7.72734 3.88267C7.76227 3.92001 7.80449 3.94978 7.85139 3.97013C7.8983 3.99049 7.94888 4.00099 8.00001 4.00099C8.05114 4.00099 8.10172 3.99049 8.14863 3.97013C8.19553 3.94978 8.23775 3.92001 8.27268 3.88267C8.76697 3.32727 9.41869 2.93558 10.1411 2.75974C10.8635 2.58389 11.6223 2.63223 12.3166 2.89832C13.0108 3.16441 13.6076 3.63564 14.0274 4.24927C14.4472 4.8629 14.6702 5.58984 14.6667 6.33333C14.6667 7.86 13.6667 9 12.6667 10L9.00534 13.542C8.88112 13.6847 8.72796 13.7993 8.55604 13.8782C8.38412 13.9571 8.19737 13.9986 8.0082 13.9998C7.81903 14.001 7.63178 13.9619 7.45887 13.8852C7.28596 13.8084 7.13136 13.6958 7.00534 13.5547L3.33334 10C2.33334 9 1.33334 7.86667 1.33334 6.33333Z" stroke="black" stroke-width="1.33333" stroke-linecap="round" stroke-linejoin="round"/>
</svg>
